<svg version="1.0" xmlns="http://www.w3.org/2000/svg" width="24px" height="24px" viewBox="0 0 64.000000 64.000000" preserveAspectRatio="xMidYMid meet">
  <g transform="translate(0.000000,64.000000) scale(0.100000,-0.100000)" fill="#FFFFFF" stroke="none">
    <path d="M9 603 c-15 -41 -8 -508 9 -525 14 -14 243 -25 288 -14 46 12 24 26 -41 26 l-65 0 0 215 0 215 180 0 180 0 0 -97 c0 -102 11 -142 30 -113 13 19 13 261 0 294 l-10 26 -280 0 -280 0 -11 -27z m551 -28 l0 -25 -260 0 -260 0 0 25 0 25 260 0 260 0 0 -25z m-400 -270 l0 -216 -57 3 -58 3 -3 213 -2 212 60 0 60 0 0 -215z"/>
    <path d="M73 478 c2 -7 14 -13 27 -13 13 0 25 6 28 13 2 8 -7 12 -28 12 -21 0 -30 -4 -27 -12z"/>
    <path d="M73 398 c2 -7 14 -13 27 -13 13 0 25 6 28 13 2 8 -7 12 -28 12 -21 0 -30 -4 -27 -12z"/>
    <path d="M73 318 c2 -7 14 -13 27 -13 13 0 25 6 28 13 2 8 -7 12 -28 12 -21 0 -30 -4 -27 -12z"/>
    <path d="M73 238 c2 -7 14 -13 27 -13 13 0 25 6 28 13 2 8 -7 12 -28 12 -21 0 -30 -4 -27 -12z"/>
    <path d="M227 484 c-13 -14 -8 -141 7 -153 20 -17 288 -11 294 7 3 9 -28 12 -132 12 l-135 0 -3 67 c-3 61 -14 84 -31 67z"/>
    <path d="M470 450 c-25 -49 -50 -52 -80 -10 -38 54 -110 29 -110 -37 0 -33 19 -28 31 7 6 17 18 30 26 30 8 0 26 -13 40 -30 41 -49 98 -36 117 27 4 11 13 24 21 27 22 8 18 26 -5 26 -13 0 -27 -14 -40 -40z"/>
    <path d="M416 271 c-43 -29 -66 -70 -66 -121 0 -79 60 -140 138 -140 55 0 95 21 121 63 42 68 17 168 -49 202 -40 21 -109 19 -144 -4z m119 -52 c15 -14 20 -31 18 -64 -1 -28 4 -48 13 -56 11 -9 12 -15 3 -26 -10 -11 -14 -11 -28 1 -9 8 -34 13 -58 13 -50 -2 -79 21 -89 70 -9 47 42 98 89 89 18 -4 41 -15 52 -27z"/>
    <path d="M442 198 c-15 -15 -15 -51 0 -66 15 -15 51 -15 66 0 28 28 7 78 -33 78 -12 0 -26 -5 -33 -12z"/>
    <path d="M233 258 c2 -8 22 -13 52 -13 30 0 50 5 53 13 3 9 -12 12 -53 12 -41 0 -56 -3 -52 -12z"/>
    <path d="M233 198 c2 -7 19 -13 37 -13 18 0 35 6 38 13 2 8 -9 12 -38 12 -29 0 -40 -4 -37 -12z"/>
    <path d="M233 138 c2 -7 19 -13 37 -13 18 0 35 6 38 13 2 8 -9 12 -38 12 -29 0 -40 -4 -37 -12z"/>
  </g>
</svg>
