<svg version="1.0" xmlns="http://www.w3.org/2000/svg" width="24px" height="24px" viewBox="0 0 64.000000 64.000000" preserveAspectRatio="xMidYMid meet">
  <g transform="translate(0.000000,64.000000) scale(0.100000,-0.100000)" fill="#FFFFFF" stroke="none">
    <path d="M132 538 l-123 -70 3 -141 3 -141 119 -69 c130 -76 118 -75 204 -22 l42 26 0 -30 c0 -51 20 -61 121 -61 134 0 129 -6 129 163 0 151 -4 167 -46 167 -13 0 -26 5 -29 10 -3 6 -17 10 -31 10 -22 0 -24 4 -24 44 l0 44 -117 67 c-65 37 -120 69 -123 71 -3 1 -61 -29 -128 -68z m216 -3 c3 -3 -204 -125 -211 -125 -3 0 -26 12 -52 26 l-47 27 108 63 109 63 45 -26 c25 -14 46 -27 48 -28z m73 -42 c27 -14 46 -29 42 -33 -5 -4 -53 -33 -107 -64 l-100 -57 -42 23 c-23 13 -43 28 -45 33 -2 8 184 124 200 125 2 0 25 -12 52 -27z m-173 -292 c2 -96 0 -122 -10 -119 -7 2 -57 28 -110 58 l-98 55 0 127 0 126 108 -62 107 -62 3 -123z m215 173 c-10 -7 -27 -14 -38 -14 -38 0 -45 -19 -45 -122 l0 -98 -52 -30 c-29 -16 -57 -30 -61 -30 -4 0 -6 55 -5 122 l3 122 105 61 105 61 3 -29 c2 -19 -3 -33 -15 -43z m75 -21 c2 -9 -8 -13 -32 -13 -34 0 -44 8 -29 24 11 11 56 2 61 -11z m-73 -23 c3 -5 24 -10 45 -10 21 0 42 5 45 10 3 6 17 10 31 10 l25 0 -3 -142 -3 -143 -100 0 -100 0 -3 129 c-1 72 0 136 2 143 6 15 52 18 61 3z"/>
    <path d="M422 263 c2 -23 7 -27 28 -25 14 2 33 11 43 20 18 16 18 17 0 23 -10 4 -31 8 -46 8 -25 1 -28 -2 -25 -26z m45 1 c3 -3 -12 -4 -19 -1 -8 3 -5 6 6 6 11 1 17 -2 13 -5z"/>
    <path d="M525 260 c3 -5 17 -10 30 -10 13 0 27 5 30 10 4 6 -8 10 -30 10 -22 0 -34 -4 -30 -10z"/>
    <path d="M422 183 c2 -22 8 -28 28 -28 20 0 26 6 28 28 3 24 0 27 -28 27 -28 0 -31 -3 -28 -27z m38 -3 c0 -5 -4 -10 -10 -10 -5 0 -10 5 -10 10 0 6 5 10 10 10 6 0 10 -4 10 -10z"/>
    <path d="M520 180 c0 -5 13 -10 29 -10 17 0 33 5 36 10 4 6 -8 10 -29 10 -20 0 -36 -4 -36 -10z"/>
    <path d="M422 103 c4 -36 40 -38 70 -5 18 20 19 24 6 19 -10 -4 -18 -2 -18 3 0 6 -14 10 -31 10 -27 0 -30 -3 -27 -27z m45 1 c3 -3 -12 -4 -19 -1 -8 3 -5 6 6 6 11 1 17 -2 13 -5z"/>
    <path d="M520 100 c0 -5 13 -10 29 -10 17 0 33 5 36 10 4 6 -8 10 -29 10 -20 0 -36 -4 -36 -10z"/>
  </g>
</svg>
