<svg version="1.0" xmlns="http://www.w3.org/2000/svg" width="24px" height="24px" viewBox="0 0 50.000000 50.000000" preserveAspectRatio="xMidYMid meet">
  <g transform="translate(0.000000,50.000000) scale(0.100000,-0.100000)" fill="#FFFFFF" stroke="none">
    <path d="M227 462 c-18 -20 -36 -91 -37 -144 l0 -38 49 0 c57 0 61 6 61 84 0 29 4 56 10 62 15 15 -17 54 -44 54 -13 0 -30 -8 -39 -18z m38 -82 c-3 -5 -15 -10 -26 -10 -10 0 -19 5 -19 10 0 6 12 10 26 10 14 0 23 -4 19 -10z m0 -60 c-3 -5 -15 -10 -26 -10 -10 0 -19 5 -19 10 0 6 12 10 26 10 14 0 23 -4 19 -10z"/>
    <path d="M36 412 c-13 -13 -4 -21 22 -19 23 2 27 -1 24 -23 -2 -14 -10 -29 -18 -33 -8 -4 -14 -19 -14 -32 0 -24 3 -25 60 -25 68 0 69 1 48 89 l-11 50 -53 0 c-29 -1 -55 -4 -58 -7z m94 -22 c0 -5 -4 -10 -10 -10 -5 0 -10 5 -10 10 0 6 5 10 10 10 6 0 10 -4 10 -10z"/>
    <path d="M326 412 c-2 -4 -5 -26 -4 -49 0 -22 -3 -50 -7 -61 -6 -21 -3 -22 64 -22 54 0 69 3 65 13 -3 8 -6 38 -7 68 l-2 54 -52 3 c-28 2 -54 -1 -57 -6z"/>
    <path d="M24 245 c-4 -8 -4 -22 0 -30 5 -13 37 -15 228 -13 l223 3 0 25 0 25 -223 3 c-191 2 -223 0 -228 -13z"/>
    <path d="M50 172 c0 -15 33 -107 43 -120 14 -17 300 -17 314 0 10 13 43 105 43 120 0 4 -20 8 -45 8 -45 0 -45 0 -45 -35 0 -28 -4 -35 -20 -35 -16 0 -20 7 -20 35 0 31 -3 35 -25 35 -22 0 -25 -4 -25 -35 0 -28 -4 -35 -20 -35 -16 0 -20 7 -20 35 0 31 -3 35 -25 35 -22 0 -25 -4 -25 -35 0 -28 -4 -35 -20 -35 -16 0 -20 7 -20 35 0 35 0 35 -45 35 -25 0 -45 -4 -45 -8z"/>
  </g>
</svg>
